<?xml version="1.0" encoding="UTF-8" standalone="no"?>
<svg
   xmlns:dc="http://purl.org/dc/elements/1.1/"
   xmlns:cc="http://creativecommons.org/ns#"
   xmlns:rdf="http://www.w3.org/1999/02/22-rdf-syntax-ns#"
   xmlns:svg="http://www.w3.org/2000/svg"
   xmlns="http://www.w3.org/2000/svg"
   xmlns:sodipodi="http://sodipodi.sourceforge.net/DTD/sodipodi-0.dtd"
   xmlns:inkscape="http://www.inkscape.org/namespaces/inkscape"
   width="800px"
   height="800px"
   viewBox="0 0 24 24"
   fill="none"
   version="1.1"
   id="svg22"
   sodipodi:docname="search-icon-white.svg"
   inkscape:version="1.0.2-2 (e86c870879, 2021-01-15)">
  <metadata
     id="metadata28">
    <rdf:RDF>
      <cc:Work
         rdf:about="">
        <dc:format>image/svg+xml</dc:format>
        <dc:type
           rdf:resource="http://purl.org/dc/dcmitype/StillImage" />
        <dc:title></dc:title>
      </cc:Work>
    </rdf:RDF>
  </metadata>
  <defs
     id="defs26" />
  <sodipodi:namedview
     pagecolor="#ffffff"
     bordercolor="#666666"
     borderopacity="1"
     objecttolerance="10"
     gridtolerance="10"
     guidetolerance="10"
     inkscape:pageopacity="0"
     inkscape:pageshadow="2"
     inkscape:window-width="1920"
     inkscape:window-height="1017"
     id="namedview24"
     showgrid="false"
     inkscape:zoom="1.0625"
     inkscape:cx="400"
     inkscape:cy="400"
     inkscape:window-x="-8"
     inkscape:window-y="-8"
     inkscape:window-maximized="1"
     inkscape:current-layer="svg22" />
  <path
     d="M15.7955 15.8111L21 21M18 10.5C18 14.6421 14.6421 18 10.5 18C6.35786 18 3 14.6421 3 10.5C3 6.35786 6.35786 3 10.5 3C14.6421 3 18 6.35786 18 10.5Z"
     stroke="#000000"
     stroke-width="2"
     stroke-linecap="round"
     stroke-linejoin="round"
     id="path20" />
  <path
     style="fill:#ffffff;stroke-width:0.941176"
     d="m 693.77105,732.16225 c -9.9095,-1.94747 -9.42224,-1.50366 -90.62185,-82.54214 l -77.79199,-77.63761 -9.73743,7.0785 c -39.88849,28.99638 -88.70258,47.53646 -138.07244,52.44127 -14.18369,1.40912 -44.8449,1.18946 -58.60237,-0.41984 C 252.3123,623.28798 193.52922,594.39408 147.29178,546.70896 133.53626,532.52276 125.70663,522.8711 114.91064,506.79236 89.279473,468.61925 74.254711,427.13244 68.565755,378.82353 66.945473,365.06458 67.207707,332.35445 69.059503,317.23523 73.155797,283.7905 81.490505,255.87997 96.480037,225.41176 105.49799,207.08158 113.45923,194.07353 124.70516,179.29412 194.92588,87.009947 313.43528,46.721298 424.8208,77.26632 c 35.00073,9.59818 70.18054,27.39581 100.35567,50.77042 11.72503,9.08257 36.34346,33.65168 46.05264,45.96036 34.59044,43.85159 55.2308,95.16396 60.36399,150.06618 1.61578,17.28148 0.64916,52.15766 -1.8829,67.93672 -7.37884,45.98272 -24.99174,88.71509 -51.38889,124.67949 -3.34731,4.56049 -6.10222,8.65562 -6.12203,9.10027 -0.0198,0.44466 34.87738,35.53789 77.5493,77.98495 82.59794,82.16268 80.43714,79.77607 82.5432,91.16881 3.02846,16.38239 -8.33315,32.962 -25.32947,36.96248 -5.93643,1.39728 -7.29649,1.42472 -13.19126,0.26625 z M 375.05882,565.54005 c 90.74393,-9.33736 168.26972,-79.67582 187.14056,-169.79098 3.52261,-16.82172 4.66423,-28.29452 4.63432,-46.5726 -0.0952,-58.14416 -22.1307,-111.24678 -63.2891,-152.51809 -18.18884,-18.23875 -36.82591,-31.42874 -60.25048,-42.64104 -30.36201,-14.53293 -58.20325,-20.73026 -93.17647,-20.74064 -22.01137,-0.007 -34.42109,1.4685 -53.97893,6.41602 -76.59081,19.37504 -137.07096,79.85519 -156.446,156.446 -4.94752,19.55784 -6.42256,31.96756 -6.41602,53.97893 0.0106,35.63817 6.24664,63.11074 21.47081,94.58823 21.54761,44.55184 57.06674,79.90915 101.72308,101.25963 36.94047,17.66147 75.43283,24.01514 118.58823,19.57454 z"
     id="path32"
     transform="scale(0.03)" />
</svg>
